<svg xmlns="http://www.w3.org/2000/svg" id="SvgjsSvg4568" width="4096" height="1684.6164733691555" version="1.1" xmlns:xlink="http://www.w3.org/1999/xlink" xmlns:svgjs="http://svgjs.com/svgjs"><defs id="SvgjsDefs4569"></defs><g id="SvgjsG4571" transform="translate(328, 328) scale(34.4)" opacity="1"><defs id="SvgjsDefs2337"><linearGradient id="SvgjsLinearGradient8MpguX3Ii" gradientUnits="userSpaceOnUse" x1="56.507929739418" y1="148.52084188147919" x2="261.53670136031513" y2="-56.50792973941801"><stop id="SvgjsStop2342" stop-color="#857bbc" offset="0"></stop><stop id="SvgjsStop2343" stop-color="#4a4a4a" offset="1"></stop></linearGradient></defs><g id="SvgjsG2338" transform="scale(0.21645021645021645)" opacity="1"><g id="SvgjsG2339" class="text" transform="translate(230.6358914691914, 128.9755851914565) scale(1)" light-content="false" fill="#38343b"><path d="M-188.77 -18.55C-188.77 -18.24 -188.8 -17.91 -188.88 -17.54C-189.17 -15.82 -189.94 -14.13 -191.19 -12.48C-192.71 -10.45 -194.33 -9.44 -196.03 -9.44C-195.99 -9.2 -195.92 -9.02 -195.8 -8.89C-195.68 -8.77 -195.51 -8.7 -195.3 -8.7C-194.39 -8.7 -193.48 -8.93 -192.58 -9.38C-190.87 -10.22 -189.46 -11.63 -188.33 -13.63C-187.44 -15.19 -187 -16.6 -187 -17.87C-187 -19.97 -187.98 -21.03 -189.94 -21.03C-190.9 -21.03 -191.84 -20.62 -192.77 -19.82C-193.69 -19.01 -194.53 -17.91 -195.3 -16.51C-196.71 -13.95 -197.95 -11.01 -199.02 -7.67L-199.24 -7.67C-198.24 -13.04 -197.17 -17.05 -196.03 -19.69C-196.03 -19.98 -196.18 -20.13 -196.47 -20.13C-197.52 -20.13 -198.8 -19.91 -200.3 -19.46C-201.81 -19.02 -203.21 -18.34 -204.5 -17.42C-205.8 -16.51 -206.45 -15.51 -206.45 -14.44C-206.45 -13.99 -206.33 -13.64 -206.08 -13.38C-205.84 -13.13 -205.55 -13 -205.22 -13C-204.9 -13 -204.7 -13.13 -204.63 -13.38C-204.99 -13.38 -205.17 -13.62 -205.17 -14.09C-205.17 -15.05 -204.71 -15.94 -203.78 -16.76C-202.17 -18.22 -200.07 -19.14 -197.47 -19.5C-198.43 -18.4 -199.31 -16.19 -200.1 -12.89C-200.89 -9.59 -201.28 -6.19 -201.28 -2.69C-201.28 -1.24 -201.01 -0.52 -200.46 -0.52C-200.21 -0.52 -200.08 -0.63 -200.08 -0.87C-200.08 -1.11 -199.79 -2.19 -199.2 -4.13C-198.61 -6.07 -197.87 -8.26 -196.98 -10.7C-196.09 -13.14 -195.01 -15.34 -193.73 -17.29C-192.45 -19.23 -191.23 -20.21 -190.07 -20.21C-189.2 -20.21 -188.77 -19.66 -188.77 -18.55Z M-173.24 -7.81C-173.15 -7.81 -173.1 -7.88 -173.1 -8.02C-173.1 -9.15 -172.95 -10.19 -172.64 -11.14C-172.33 -12.09 -172.09 -12.69 -171.9 -12.95C-171.72 -13.2 -171.57 -13.39 -171.44 -13.52C-171.44 -13.68 -171.5 -13.82 -171.62 -13.93C-171.74 -14.04 -171.89 -14.09 -172.07 -14.09C-172.9 -14.09 -173.83 -13.55 -174.84 -12.46C-176.62 -10.55 -178.24 -7.91 -179.71 -4.52L-179.9 -4.52C-179.54 -7.29 -178.94 -10 -178.11 -12.65C-178.11 -13.05 -178.28 -13.25 -178.62 -13.25C-179.4 -13.25 -180.06 -12.15 -180.61 -9.96C-181.15 -7.76 -181.42 -5.31 -181.42 -2.61C-181.42 -1.18 -181.16 -0.46 -180.64 -0.46C-180.35 -0.46 -180.2 -0.57 -180.2 -0.79C-180.2 -1.68 -179.44 -3.58 -177.92 -6.49C-176.39 -9.4 -175.01 -11.39 -173.78 -12.46C-174.11 -11.71 -174.27 -10.92 -174.27 -10.06C-174.27 -8.56 -173.93 -7.81 -173.24 -7.81Z M-161.35 0.24C-160.33 0.24 -159.37 -0.35 -158.47 -1.54C-157.56 -2.72 -156.85 -4.2 -156.35 -5.96C-155.84 -7.72 -155.57 -9.47 -155.56 -11.21C-155.07 -11.03 -154.63 -10.93 -154.25 -10.93C-153.87 -10.93 -153.59 -11.03 -153.41 -11.23C-153.23 -11.43 -153.14 -11.66 -153.14 -11.91C-153.39 -11.77 -153.73 -11.7 -154.16 -11.7C-154.58 -11.7 -155.08 -11.89 -155.64 -12.27C-155.77 -13.05 -155.99 -13.75 -156.32 -14.36C-156.64 -14.98 -156.98 -15.29 -157.32 -15.29C-157.56 -15.29 -157.79 -15.17 -158.02 -14.95C-158.25 -14.72 -158.36 -14.48 -158.36 -14.23C-158.36 -13.97 -158.18 -13.57 -157.81 -13.03C-157.45 -12.48 -156.99 -12.03 -156.43 -11.67L-156.43 -11.34C-156.43 -9.66 -156.67 -7.98 -157.15 -6.31C-157.63 -4.64 -158.23 -3.3 -158.96 -2.27C-159.68 -1.25 -160.38 -0.73 -161.05 -0.73C-162.23 -0.73 -162.82 -1.81 -162.82 -3.97C-162.82 -5.75 -162.4 -7.55 -161.57 -9.38C-160.73 -11.22 -159.75 -12.13 -158.6 -12.13C-158.66 -12.35 -158.76 -12.51 -158.9 -12.62C-159.05 -12.73 -159.23 -12.78 -159.45 -12.78C-160.97 -12.78 -162.28 -11.7 -163.39 -9.52C-164.26 -7.8 -164.7 -6.07 -164.7 -4.35C-164.7 -1.29 -163.58 0.24 -161.35 0.24Z M-141.49 -2.5C-141.49 -3.3 -141.29 -4.23 -140.9 -5.28C-140.5 -6.33 -139.95 -7.13 -139.26 -7.67C-139.23 -7.71 -139.22 -7.77 -139.24 -7.86C-139.35 -8.02 -139.48 -8.06 -139.64 -7.97C-140.42 -7.43 -141.05 -6.59 -141.54 -5.45C-142.02 -4.32 -142.26 -3.32 -142.26 -2.45C-142.26 -0.82 -141.63 0 -140.38 0C-138.84 0 -137.51 -1.11 -136.41 -3.32C-135.41 -5.28 -134.91 -7.24 -134.91 -9.19C-134.91 -11.9 -135.76 -13.25 -137.47 -13.25C-139.3 -13.25 -141.25 -11 -143.32 -6.5L-143.67 -6.5L-143.51 -7.13C-142.58 -10.66 -141.68 -13.58 -140.81 -15.88C-140.81 -16.23 -140.96 -16.4 -141.25 -16.4C-141.83 -16.4 -142.48 -15.6 -143.19 -13.99C-143.91 -12.39 -144.59 -10.13 -145.22 -7.21C-145.51 -5.97 -145.79 -4.36 -146.06 -2.37C-148.78 2.55 -150.14 5.89 -150.14 7.67C-150.14 8.67 -149.71 9.17 -148.84 9.17C-148.17 9.17 -147.61 8.87 -147.18 8.27C-146.96 7.96 -146.77 7.66 -146.59 7.36C-146.42 7.06 -146.25 6.63 -146.09 6.08C-145.93 5.53 -145.8 5.07 -145.7 4.71C-145.6 4.34 -145.49 3.82 -145.37 3.13C-145.25 2.44 -145.17 1.94 -145.11 1.62C-145.06 1.3 -144.98 0.83 -144.88 0.2C-144.78 -0.42 -144.5 -1.38 -144.02 -2.68C-143.55 -3.98 -142.99 -5.35 -142.32 -6.81C-141.66 -8.27 -140.91 -9.56 -140.05 -10.66C-139.2 -11.77 -138.42 -12.32 -137.7 -12.32C-136.98 -12.32 -136.63 -11.64 -136.63 -10.28C-136.63 -8.29 -137.14 -6.15 -138.18 -3.86C-139.06 -1.87 -139.88 -0.87 -140.62 -0.87C-141.2 -0.87 -141.49 -1.41 -141.49 -2.5ZM-149.41 7.43C-149.41 7.19 -149.37 6.91 -149.3 6.58C-148.9 4.82 -147.88 2.35 -146.23 -0.84C-146.59 2.24 -146.84 4.16 -146.99 4.92C-147.39 7.14 -148 8.24 -148.81 8.24C-149.21 8.24 -149.41 7.97 -149.41 7.43Z M-119.57 -13.19C-120.46 -13.19 -121.33 -12.94 -122.18 -12.43C-123.74 -11.47 -124.97 -9.9 -125.85 -7.72C-126.42 -6.29 -126.7 -4.97 -126.7 -3.75C-126.7 -3.1 -126.62 -2.47 -126.45 -1.85C-125.93 -0.04 -124.7 0.87 -122.78 0.87C-122.29 0.87 -121.81 0.76 -121.33 0.53C-120.85 0.3 -120.46 0.05 -120.16 -0.23C-119.86 -0.51 -119.53 -0.89 -119.18 -1.36C-118.82 -1.83 -118.62 -2.17 -118.56 -2.37C-118.55 -2.48 -118.7 -2.53 -119.03 -2.53C-119.23 -2.53 -119.36 -2.46 -119.44 -2.31C-119.74 -1.79 -120.13 -1.31 -120.6 -0.87C-120.84 -0.65 -121.13 -0.47 -121.48 -0.31C-121.82 -0.16 -122.15 -0.08 -122.45 -0.08C-122.76 -0.08 -123.02 -0.12 -123.22 -0.19C-124.25 -0.55 -124.77 -1.64 -124.77 -3.45C-124.77 -5.59 -124.21 -7.68 -123.11 -9.71C-122.07 -11.58 -120.96 -12.51 -119.76 -12.51C-119.16 -12.51 -118.86 -12.14 -118.86 -11.4C-118.86 -10.4 -119.3 -9.3 -120.17 -8.11C-121.24 -6.62 -122.42 -5.88 -123.71 -5.88C-123.61 -5.69 -123.48 -5.56 -123.3 -5.47C-123.12 -5.38 -122.89 -5.33 -122.62 -5.33C-120.88 -5.33 -119.48 -6.17 -118.43 -7.86C-117.81 -8.88 -117.5 -9.85 -117.5 -10.77C-117.5 -12.39 -118.19 -13.19 -119.57 -13.19Z M-100.64 -7.81C-100.55 -7.81 -100.5 -7.88 -100.5 -8.02C-100.5 -9.15 -100.35 -10.19 -100.04 -11.14C-99.73 -12.09 -99.49 -12.69 -99.31 -12.95C-99.13 -13.2 -98.97 -13.39 -98.84 -13.52C-98.84 -13.68 -98.9 -13.82 -99.02 -13.93C-99.14 -14.04 -99.29 -14.09 -99.47 -14.09C-100.3 -14.09 -101.23 -13.55 -102.24 -12.46C-104.02 -10.55 -105.64 -7.91 -107.11 -4.52L-107.3 -4.52C-106.94 -7.29 -106.34 -10 -105.51 -12.65C-105.51 -13.05 -105.68 -13.25 -106.03 -13.25C-106.81 -13.25 -107.47 -12.15 -108.01 -9.96C-108.56 -7.76 -108.83 -5.31 -108.83 -2.61C-108.83 -1.18 -108.56 -0.46 -108.04 -0.46C-107.75 -0.46 -107.6 -0.57 -107.6 -0.79C-107.6 -1.68 -106.84 -3.58 -105.32 -6.49C-103.8 -9.4 -102.42 -11.39 -101.18 -12.46C-101.51 -11.71 -101.67 -10.92 -101.67 -10.06C-101.67 -8.56 -101.33 -7.81 -100.64 -7.81Z M-90.47 -11.78C-90.1 -11.78 -89.8 -11.8 -89.54 -11.83C-90.72 -8.22 -91.31 -4.83 -91.31 -1.66C-91.31 2.09 -90.23 3.97 -88.07 3.97C-87.58 3.97 -87.1 3.74 -86.63 3.29C-86.16 2.84 -85.84 2.46 -85.68 2.15C-85.52 1.84 -85.38 1.57 -85.27 1.33C-85.24 1.26 -85.27 1.21 -85.38 1.17C-85.62 1.08 -85.77 1.13 -85.84 1.33C-86.01 1.71 -86.29 2.1 -86.69 2.49C-87.09 2.88 -87.51 3.07 -87.96 3.07C-89.09 3.07 -89.65 1.67 -89.65 -1.14C-89.65 -3.95 -88.93 -7.63 -87.5 -12.16C-85.4 -12.54 -84.25 -12.73 -84.05 -12.73C-83.67 -12.73 -83.48 -12.87 -83.48 -13.16C-83.48 -13.31 -83.55 -13.38 -83.69 -13.38C-84.24 -13.38 -85.41 -13.28 -87.2 -13.08C-86.84 -14.23 -86.51 -15.16 -86.22 -15.88C-86.22 -16.23 -86.38 -16.4 -86.69 -16.4C-87.47 -16.4 -88.28 -15.25 -89.13 -12.95C-89.79 -12.91 -90.26 -12.89 -90.56 -12.89C-90.86 -12.89 -91.07 -12.96 -91.17 -13.08C-91.21 -13.08 -91.24 -13.07 -91.26 -13.06C-91.44 -13 -91.53 -12.87 -91.53 -12.65C-91.53 -12.07 -91.17 -11.78 -90.47 -11.78Z M-76.68 8.51C-77.87 8.51 -78.64 8.14 -78.96 7.4C-79.05 7.25 -79.19 7.19 -79.38 7.22C-79.57 7.25 -79.67 7.32 -79.67 7.43C-79.67 7.46 -79.66 7.51 -79.64 7.56C-79.15 8.61 -78.16 9.14 -76.68 9.14C-73.23 9.14 -70.81 6.51 -69.41 1.25C-68.98 1.36 -68.63 1.53 -68.35 1.77C-68.08 2 -67.9 2.23 -67.8 2.45C-67.7 2.67 -67.64 2.93 -67.62 3.25C-67.6 3.57 -67.61 3.79 -67.65 3.92C-67.48 3.92 -67.29 3.81 -67.08 3.6C-66.86 3.4 -66.75 3.15 -66.75 2.87C-66.75 2.59 -66.77 2.37 -66.8 2.2C-67.02 1.24 -67.82 0.64 -69.2 0.41C-68.98 -0.59 -68.72 -1.97 -68.41 -3.74C-68.1 -5.51 -67.7 -7.26 -67.21 -9C-66.72 -10.74 -66.3 -11.93 -65.96 -12.57C-65.96 -12.98 -66.15 -13.19 -66.53 -13.19C-67.13 -13.19 -67.69 -12.64 -68.22 -11.53C-69.43 -8.89 -70.87 -6.27 -72.52 -3.7C-73.64 -1.94 -74.46 -1.06 -74.96 -1.06C-75.4 -1.06 -75.62 -1.56 -75.62 -2.57C-75.62 -3.58 -75.36 -4.98 -74.85 -6.79C-74.35 -8.59 -73.94 -9.89 -73.63 -10.68C-73.32 -11.46 -73.07 -12.1 -72.87 -12.59C-72.87 -12.99 -73.02 -13.19 -73.33 -13.19L-73.49 -13.16C-74.24 -13 -75.06 -11.85 -75.97 -9.7C-76.88 -7.55 -77.33 -5.41 -77.33 -3.29C-77.33 -1.17 -76.64 -0.11 -75.26 -0.11C-74.03 -0.11 -72.23 -2.2 -69.88 -6.39L-69.63 -6.39C-69.87 -5.25 -70.08 -4.07 -70.26 -2.86C-70.44 -1.64 -70.63 -0.58 -70.83 0.33C-72.82 0.4 -74.52 0.85 -75.92 1.67C-77.31 2.5 -78.4 3.5 -79.18 4.68C-79.23 4.79 -79.2 4.88 -79.07 4.95C-78.83 5.06 -78.66 5.03 -78.55 4.87C-76.79 2.44 -74.27 1.19 -70.99 1.12C-71.43 3.15 -72.04 4.84 -72.84 6.2C-73.77 7.74 -75.04 8.51 -76.68 8.51Z M-41.62 0C-40.46 0 -38.72 -1.97 -36.42 -5.9L-36.15 -5.9C-36.35 -4.65 -36.45 -3.35 -36.45 -1.99C-36.45 -0.63 -36.24 0.55 -35.84 1.55C-35.43 2.55 -34.84 3.05 -34.08 3.05C-33.76 3.05 -33.44 2.86 -33.14 2.48C-32.84 2.09 -32.65 1.79 -32.56 1.56C-32.47 1.34 -32.4 1.16 -32.37 1.03C-32.33 0.91 -32.33 0.82 -32.37 0.76C-32.4 0.71 -32.46 0.68 -32.53 0.68C-32.73 0.68 -32.86 0.78 -32.91 0.98C-33.06 1.36 -33.22 1.65 -33.4 1.84C-33.58 2.03 -33.78 2.12 -34 2.12C-34.56 2.12 -34.84 1.19 -34.84 -0.68C-34.84 -2.55 -34.63 -4.42 -34.22 -6.31C-33.8 -8.2 -33.47 -9.46 -33.21 -10.09C-32.96 -10.73 -32.75 -11.22 -32.59 -11.56C-32.59 -11.98 -32.76 -12.19 -33.1 -12.19C-33.76 -12.19 -34.39 -11.53 -35.01 -10.23C-35.75 -8.76 -36.72 -7.03 -37.92 -5.03C-38.61 -3.87 -39.26 -2.91 -39.89 -2.14C-40.51 -1.36 -41 -0.98 -41.34 -0.98C-41.78 -0.98 -42 -1.52 -42 -2.61C-42 -4.77 -41.45 -7.07 -40.36 -9.52C-39.4 -11.64 -38.33 -12.7 -37.16 -12.7C-36.9 -12.7 -36.67 -12.62 -36.48 -12.44C-36.28 -12.27 -36.15 -12.14 -36.09 -12.04C-36.04 -11.94 -35.99 -11.82 -35.94 -11.68C-35.9 -11.55 -35.73 -11.48 -35.44 -11.48C-35.19 -11.48 -35.03 -11.63 -34.98 -11.94L-35.14 -12.29C-35.23 -12.55 -35.45 -12.8 -35.78 -13.06C-36.12 -13.31 -36.57 -13.44 -37.16 -13.44C-37.74 -13.44 -38.36 -13.26 -39.03 -12.89C-40.59 -12.04 -41.85 -10.44 -42.81 -8.11C-43.5 -6.44 -43.85 -4.91 -43.85 -3.51C-43.85 -1.17 -43.1 0 -41.62 0Z M-22 -4.41L-22.25 -4.41C-21.89 -7.2 -21.29 -9.95 -20.45 -12.65C-20.45 -13.05 -20.62 -13.25 -20.94 -13.25C-21.72 -13.25 -22.39 -12.15 -22.94 -9.96C-23.5 -7.76 -23.77 -5.31 -23.77 -2.61C-23.77 -1.18 -23.48 -0.46 -22.9 -0.46C-22.65 -0.46 -22.52 -0.58 -22.52 -0.8C-22.52 -1.03 -22.25 -1.84 -21.71 -3.22C-21.16 -4.61 -20.41 -6.18 -19.45 -7.94C-18.49 -9.7 -17.57 -10.96 -16.7 -11.72C-16.52 -11.87 -16.36 -11.94 -16.21 -11.94C-15.99 -11.94 -15.92 -11.82 -15.99 -11.59C-16.77 -8.6 -17.16 -5.85 -17.16 -3.35C-17.16 -1.77 -16.97 -0.49 -16.58 0.5C-16.19 1.49 -15.65 1.99 -14.96 1.99C-14.71 1.99 -14.46 1.88 -14.21 1.66C-13.97 1.44 -13.8 1.27 -13.71 1.14C-13.45 0.74 -13.45 0.54 -13.71 0.54C-13.78 0.54 -13.92 0.63 -14.12 0.8C-14.32 0.97 -14.52 1.06 -14.74 1.06C-15.3 1.06 -15.59 0.1 -15.59 -1.82C-15.59 -3.15 -15.42 -4.69 -15.08 -6.45C-14.75 -8.21 -14.48 -9.42 -14.28 -10.1C-14.08 -10.78 -13.92 -11.33 -13.79 -11.75C-13.79 -12.64 -14.25 -13.08 -15.18 -13.08C-17.39 -13.08 -19.67 -10.19 -22 -4.41Z M-2.83 0C-1.61 0 0.27 -2.24 2.83 -6.72L3.18 -6.72C2.93 -5.09 2.8 -3.55 2.8 -2.12C2.8 1.94 3.88 3.97 6.04 3.97C6.53 3.97 7.01 3.74 7.49 3.29C7.97 2.84 8.3 2.46 8.46 2.15C8.62 1.84 8.76 1.57 8.87 1.33C8.89 1.26 8.85 1.21 8.76 1.17C8.52 1.08 8.36 1.13 8.27 1.33C8.11 1.71 7.83 2.1 7.44 2.49C7.05 2.88 6.63 3.07 6.17 3.07C5 3.07 4.41 1.72 4.41 -0.98C4.41 -2.79 4.57 -4.72 4.91 -6.77C5.25 -8.82 5.62 -10.59 6.02 -12.06C6.43 -13.54 6.93 -15.1 7.52 -16.73C8.11 -18.36 8.62 -19.65 9.06 -20.59C9.06 -20.9 8.9 -21.05 8.6 -21.05C7.98 -21.05 7.2 -20 6.27 -17.88C5.34 -15.77 4.54 -13.3 3.89 -10.47C3.11 -9 2.21 -7.38 1.2 -5.6C0.45 -4.32 -0.27 -3.22 -0.97 -2.33C-1.66 -1.43 -2.19 -0.98 -2.56 -0.98C-3.01 -0.98 -3.24 -1.53 -3.24 -2.64C-3.24 -4.74 -2.7 -6.97 -1.63 -9.33C-0.71 -11.41 0.34 -12.46 1.52 -12.46C1.96 -12.46 2.23 -12.31 2.35 -12.01C2.47 -11.71 2.67 -11.56 2.94 -11.56C3.21 -11.56 3.37 -11.71 3.43 -12.02L3.29 -12.32C3.2 -12.52 3.01 -12.72 2.72 -12.91C2.43 -13.1 2.01 -13.19 1.47 -13.19C0.92 -13.19 0.32 -13.01 -0.35 -12.65C-1.89 -11.83 -3.14 -10.28 -4.08 -8C-4.77 -6.36 -5.11 -4.87 -5.11 -3.51C-5.11 -1.17 -4.35 0 -2.83 0Z M45.02 -20.73C44.07 -20.73 42.94 -20.45 41.63 -19.9C40.31 -19.34 39.13 -18.56 38.07 -17.56C37.01 -16.55 36.48 -15.51 36.48 -14.44C36.48 -13.94 36.61 -13.55 36.87 -13.27C37.13 -13 37.43 -12.87 37.77 -12.87C38.1 -12.87 38.29 -12.99 38.32 -13.25C37.94 -13.25 37.75 -13.53 37.75 -14.09C37.75 -15.34 38.33 -16.5 39.48 -17.56C40.63 -18.62 41.92 -19.39 43.33 -19.88C42.46 -18.9 41.72 -16.84 41.13 -13.68C40.89 -12.36 40.65 -10.95 40.39 -9.47C40.14 -7.98 39.84 -6.55 39.49 -5.18C39.15 -3.81 38.74 -2.57 38.27 -1.46C37.8 -0.34 37.18 0.55 36.41 1.21C35.64 1.87 34.74 2.2 33.73 2.2C31.86 2.2 30.67 1.4 30.16 -0.22C29.98 -0.8 29.89 -1.37 29.89 -1.93C29.89 -2.98 30.19 -4.03 30.79 -5.09C31.73 -6.7 33.02 -7.51 34.65 -7.51C34.6 -7.83 34.49 -8.08 34.34 -8.24C34.19 -8.4 33.97 -8.49 33.7 -8.49C32.69 -8.49 31.78 -8.09 30.99 -7.29C30.21 -6.49 29.71 -5.62 29.5 -4.66C29.29 -3.71 29.19 -2.95 29.19 -2.38C29.19 -1.81 29.2 -1.33 29.24 -0.95C29.37 0.19 29.86 1.16 30.72 1.96C31.58 2.76 32.69 3.16 34.03 3.16C35.37 3.16 36.53 2.82 37.51 2.15C38.49 1.48 39.25 0.59 39.81 -0.5C40.36 -1.6 40.85 -2.85 41.26 -4.26C41.68 -5.66 41.98 -7.1 42.17 -8.57C42.36 -10.04 42.57 -11.47 42.79 -12.88C43 -14.28 43.2 -15.54 43.38 -16.63C43.57 -17.73 43.84 -18.61 44.21 -19.28C44.59 -19.96 45.03 -20.29 45.56 -20.29L45.53 -20.4C45.48 -20.62 45.31 -20.73 45.02 -20.73Z M53.86 -4.41L53.61 -4.41C53.97 -7.2 54.57 -9.95 55.41 -12.65C55.41 -13.05 55.24 -13.25 54.92 -13.25C54.14 -13.25 53.47 -12.15 52.92 -9.96C52.36 -7.76 52.09 -5.31 52.09 -2.61C52.09 -1.18 52.38 -0.46 52.96 -0.46C53.21 -0.46 53.34 -0.58 53.34 -0.8C53.34 -1.03 53.61 -1.84 54.16 -3.22C54.7 -4.61 55.45 -6.18 56.41 -7.94C57.37 -9.7 58.29 -10.96 59.16 -11.72C59.34 -11.87 59.5 -11.94 59.65 -11.94C59.87 -11.94 59.94 -11.82 59.87 -11.59C59.09 -8.6 58.7 -5.85 58.7 -3.35C58.7 -1.77 58.89 -0.49 59.28 0.5C59.67 1.49 60.21 1.99 60.9 1.99C61.15 1.99 61.4 1.88 61.65 1.66C61.89 1.44 62.06 1.27 62.15 1.14C62.41 0.74 62.41 0.54 62.15 0.54C62.08 0.54 61.94 0.63 61.74 0.8C61.54 0.97 61.34 1.06 61.12 1.06C60.56 1.06 60.28 0.1 60.28 -1.82C60.28 -3.15 60.44 -4.69 60.78 -6.45C61.11 -8.21 61.38 -9.42 61.58 -10.1C61.78 -10.78 61.94 -11.33 62.07 -11.75C62.07 -12.64 61.61 -13.08 60.68 -13.08C58.47 -13.08 56.2 -10.19 53.86 -4.41Z M79.34 -12.32C79.25 -13.1 79.07 -13.79 78.78 -14.4C78.5 -15.01 78.2 -15.31 77.87 -15.31C77.6 -15.31 77.35 -15.2 77.11 -14.99C76.88 -14.77 76.76 -14.53 76.76 -14.27C76.76 -14 76.92 -13.61 77.25 -13.08C77.57 -12.56 78 -12.1 78.53 -11.72L78.53 -11.56C78.53 -9.89 78.24 -8.18 77.66 -6.43C77.08 -4.68 76.39 -3.27 75.6 -2.2C74.81 -1.13 74.11 -0.6 73.49 -0.6C72.79 -0.6 72.43 -1.4 72.43 -2.99C72.43 -4.59 73 -7.36 74.15 -11.32C74.15 -11.7 73.97 -11.89 73.6 -11.89C73.24 -11.89 72.83 -11.47 72.38 -10.64C71.93 -9.8 71.53 -8.7 71.2 -7.33C70.86 -5.96 70.69 -4.68 70.69 -3.48C70.69 -2.48 70.89 -1.6 71.29 -0.83C71.69 -0.06 72.36 0.33 73.29 0.33C74.22 0.33 75.16 -0.28 76.11 -1.48C77.05 -2.69 77.82 -4.18 78.42 -5.97C79.02 -7.76 79.34 -9.5 79.4 -11.21C79.85 -11.03 80.27 -10.93 80.66 -10.93C81.05 -10.93 81.35 -11.04 81.56 -11.25C81.77 -11.46 81.87 -11.68 81.87 -11.91C81.67 -11.79 81.33 -11.72 80.85 -11.72C80.37 -11.72 79.87 -11.92 79.34 -12.32Z M95.23 -13.19C94.34 -13.19 93.47 -12.94 92.62 -12.43C91.06 -11.47 89.83 -9.9 88.94 -7.72C88.38 -6.29 88.1 -4.97 88.1 -3.75C88.1 -3.1 88.18 -2.47 88.35 -1.85C88.87 -0.04 90.1 0.87 92.02 0.87C92.51 0.87 92.99 0.76 93.47 0.53C93.95 0.3 94.34 0.05 94.64 -0.23C94.94 -0.51 95.27 -0.89 95.62 -1.36C95.98 -1.83 96.18 -2.17 96.23 -2.37C96.25 -2.48 96.1 -2.53 95.77 -2.53C95.57 -2.53 95.44 -2.46 95.36 -2.31C95.05 -1.79 94.67 -1.31 94.19 -0.87C93.96 -0.65 93.67 -0.47 93.32 -0.31C92.98 -0.16 92.65 -0.08 92.34 -0.08C92.04 -0.08 91.78 -0.12 91.58 -0.19C90.55 -0.55 90.03 -1.64 90.03 -3.45C90.03 -5.59 90.59 -7.68 91.69 -9.71C92.72 -11.58 93.84 -12.51 95.04 -12.51C95.64 -12.51 95.93 -12.14 95.93 -11.4C95.93 -10.4 95.5 -9.3 94.63 -8.11C93.56 -6.62 92.38 -5.88 91.09 -5.88C91.18 -5.69 91.32 -5.56 91.5 -5.47C91.68 -5.38 91.91 -5.33 92.18 -5.33C93.92 -5.33 95.32 -6.17 96.37 -7.86C96.99 -8.88 97.29 -9.85 97.29 -10.77C97.29 -12.39 96.61 -13.19 95.23 -13.19Z M107.44 -0.92C107.44 -1.8 107.68 -2.86 108.17 -4.11C108.88 -5.88 109.72 -7.04 110.68 -7.59C110.79 -7.66 110.82 -7.82 110.77 -8.05C110.73 -8.29 110.62 -8.35 110.46 -8.24C109.61 -7.72 108.76 -6.7 107.92 -5.2C107.07 -3.69 106.65 -2.25 106.65 -0.87C106.65 0.96 107.45 1.88 109.04 1.88C110.17 1.88 111.18 1.32 112.06 0.2C112.95 -0.91 113.4 -2.27 113.4 -3.86C113.4 -4.75 113.13 -6.18 112.61 -8.15C112.08 -10.11 111.82 -11.44 111.82 -12.13C111.82 -13.29 112.31 -14.43 113.29 -15.53C113.6 -15.89 113.75 -16.18 113.75 -16.4C113.75 -16.73 113.56 -16.89 113.18 -16.89C112.44 -16.89 111.68 -16.36 110.92 -15.29C110.16 -14.22 109.21 -12.6 108.08 -10.43C106.95 -8.26 105.95 -6.56 105.1 -5.33C105.08 -5.31 105.07 -5.29 105.07 -5.25C105.07 -5.21 105.11 -5.15 105.2 -5.07C105.28 -4.99 105.38 -4.94 105.51 -4.91C105.64 -4.88 105.74 -4.91 105.81 -4.98C106.68 -6.23 107.68 -7.93 108.8 -10.08C109.92 -12.23 110.6 -13.49 110.84 -13.87C110.8 -13.71 110.79 -13.37 110.79 -12.85C110.79 -12.34 110.95 -11.23 111.29 -9.55C111.62 -7.86 111.79 -6.56 111.79 -5.63C111.79 -3.73 111.46 -2.15 110.8 -0.9C110.14 0.35 109.43 0.98 108.66 0.98C107.85 0.98 107.44 0.34 107.44 -0.92Z M124.22 -11.78C124.59 -11.78 124.89 -11.8 125.15 -11.83C123.97 -8.22 123.38 -4.83 123.38 -1.66C123.38 2.09 124.46 3.97 126.62 3.97C127.11 3.97 127.59 3.74 128.06 3.29C128.53 2.84 128.85 2.46 129.01 2.15C129.17 1.84 129.31 1.57 129.42 1.33C129.45 1.26 129.42 1.21 129.31 1.17C129.07 1.08 128.92 1.13 128.85 1.33C128.68 1.71 128.4 2.1 128 2.49C127.6 2.88 127.18 3.07 126.72 3.07C125.6 3.07 125.04 1.67 125.04 -1.14C125.04 -3.95 125.75 -7.63 127.19 -12.16C129.29 -12.54 130.44 -12.73 130.64 -12.73C131.02 -12.73 131.21 -12.87 131.21 -13.16C131.21 -13.31 131.14 -13.38 131 -13.38C130.45 -13.38 129.28 -13.28 127.49 -13.08C127.85 -14.23 128.18 -15.16 128.47 -15.88C128.47 -16.23 128.31 -16.4 128 -16.4C127.22 -16.4 126.41 -15.25 125.56 -12.95C124.9 -12.91 124.43 -12.89 124.13 -12.89C123.83 -12.89 123.62 -12.96 123.52 -13.08C123.48 -13.08 123.45 -13.07 123.43 -13.06C123.25 -13 123.16 -12.87 123.16 -12.65C123.16 -12.07 123.52 -11.78 124.22 -11.78Z M143.94 -3.32C143.94 -1.89 144.21 -1.17 144.73 -1.17C145.02 -1.17 145.17 -1.28 145.17 -1.5C145.17 -1.93 145.8 -3.35 147.07 -5.75C148.34 -8.16 149.49 -9.8 150.52 -10.69C150.63 -10.78 150.74 -10.83 150.85 -10.85C150.98 -10.85 151.02 -10.79 150.99 -10.66C150.41 -8.56 150.12 -6.12 150.12 -3.35C150.12 -1.77 150.31 -0.49 150.7 0.5C151.09 1.49 151.64 1.99 152.35 1.99C152.58 1.99 152.82 1.88 153.07 1.66C153.31 1.44 153.47 1.27 153.54 1.14C153.82 0.74 153.83 0.54 153.57 0.54C153.5 0.54 153.36 0.63 153.16 0.8C152.96 0.97 152.76 1.06 152.56 1.06C151.98 1.06 151.69 0.1 151.69 -1.82C151.69 -4.8 152.17 -7.85 153.11 -10.99C153.11 -11.82 152.67 -12.24 151.8 -12.24C151.15 -12.24 150.42 -11.79 149.6 -10.89C148.78 -10 148.07 -9.03 147.46 -7.98C146.86 -6.94 146.25 -5.78 145.66 -4.52L145.44 -4.52C145.82 -6.98 146.44 -9.48 147.29 -12.02C147.29 -12.87 146.85 -13.3 145.98 -13.3C143.97 -13.3 141.77 -10.31 139.37 -4.32L139.13 -4.32C139.49 -7.1 140.09 -9.8 140.92 -12.43C140.92 -12.81 140.75 -13 140.41 -13C139.63 -13 138.96 -11.91 138.42 -9.72C137.88 -7.54 137.6 -5.09 137.6 -2.37C137.6 -0.93 137.88 -0.22 138.42 -0.22C138.69 -0.22 138.83 -0.33 138.83 -0.54C138.83 -0.8 139.12 -1.67 139.7 -3.17C140.28 -4.66 141.05 -6.32 142.01 -8.13C142.97 -9.95 143.85 -11.19 144.65 -11.86C144.76 -11.95 144.88 -12 145 -12.02C145.17 -12.04 145.22 -11.96 145.17 -11.78C144.35 -8.37 143.94 -5.55 143.94 -3.32Z M169.27 -13.19C168.38 -13.19 167.51 -12.94 166.65 -12.43C165.09 -11.47 163.87 -9.9 162.98 -7.72C162.42 -6.29 162.14 -4.97 162.14 -3.75C162.14 -3.1 162.22 -2.47 162.38 -1.85C162.91 -0.04 164.13 0.87 166.06 0.87C166.55 0.87 167.03 0.76 167.51 0.53C167.99 0.3 168.38 0.05 168.68 -0.23C168.98 -0.51 169.31 -0.89 169.66 -1.36C170.01 -1.83 170.22 -2.17 170.27 -2.37C170.29 -2.48 170.14 -2.53 169.81 -2.53C169.61 -2.53 169.47 -2.46 169.4 -2.31C169.09 -1.79 168.7 -1.31 168.23 -0.87C168 -0.65 167.71 -0.47 167.36 -0.31C167.02 -0.16 166.69 -0.08 166.38 -0.08C166.07 -0.08 165.82 -0.12 165.62 -0.19C164.59 -0.55 164.07 -1.64 164.07 -3.45C164.07 -5.59 164.62 -7.68 165.73 -9.71C166.76 -11.58 167.88 -12.51 169.08 -12.51C169.67 -12.51 169.97 -12.14 169.97 -11.4C169.97 -10.4 169.54 -9.3 168.67 -8.11C167.6 -6.62 166.42 -5.88 165.13 -5.88C165.22 -5.69 165.36 -5.56 165.54 -5.47C165.72 -5.38 165.95 -5.33 166.22 -5.33C167.96 -5.33 169.36 -6.17 170.41 -7.86C171.02 -8.88 171.33 -9.85 171.33 -10.77C171.33 -12.39 170.64 -13.19 169.27 -13.19Z M181.64 -4.41L181.4 -4.41C181.76 -7.2 182.36 -9.95 183.19 -12.65C183.19 -13.05 183.03 -13.25 182.7 -13.25C181.92 -13.25 181.26 -12.15 180.7 -9.96C180.15 -7.76 179.87 -5.31 179.87 -2.61C179.87 -1.18 180.16 -0.46 180.74 -0.46C181 -0.46 181.12 -0.58 181.12 -0.8C181.12 -1.03 181.4 -1.84 181.94 -3.22C182.48 -4.61 183.24 -6.18 184.2 -7.94C185.16 -9.7 186.08 -10.96 186.95 -11.72C187.13 -11.87 187.29 -11.94 187.44 -11.94C187.65 -11.94 187.73 -11.82 187.65 -11.59C186.87 -8.6 186.48 -5.85 186.48 -3.35C186.48 -1.77 186.68 -0.49 187.07 0.5C187.46 1.49 188 1.99 188.69 1.99C188.94 1.99 189.19 1.88 189.43 1.66C189.68 1.44 189.85 1.27 189.94 1.14C190.19 0.74 190.19 0.54 189.94 0.54C189.87 0.54 189.73 0.63 189.53 0.8C189.33 0.97 189.12 1.06 188.9 1.06C188.34 1.06 188.06 0.1 188.06 -1.82C188.06 -3.15 188.23 -4.69 188.56 -6.45C188.9 -8.21 189.17 -9.42 189.37 -10.1C189.57 -10.78 189.73 -11.33 189.86 -11.75C189.86 -12.64 189.39 -13.08 188.47 -13.08C186.26 -13.08 183.98 -10.19 181.64 -4.41Z M200.14 -11.78C200.5 -11.78 200.81 -11.8 201.06 -11.83C199.88 -8.22 199.29 -4.83 199.29 -1.66C199.29 2.09 200.37 3.97 202.53 3.97C203.02 3.97 203.5 3.74 203.97 3.29C204.44 2.84 204.76 2.46 204.92 2.15C205.09 1.84 205.22 1.57 205.33 1.33C205.37 1.26 205.33 1.21 205.22 1.17C204.99 1.08 204.83 1.13 204.76 1.33C204.6 1.71 204.32 2.1 203.92 2.49C203.52 2.88 203.09 3.07 202.64 3.07C201.52 3.07 200.95 1.67 200.95 -1.14C200.95 -3.95 201.67 -7.63 203.1 -12.16C205.21 -12.54 206.36 -12.73 206.56 -12.73C206.94 -12.73 207.13 -12.87 207.13 -13.16C207.13 -13.31 207.06 -13.38 206.91 -13.38C206.37 -13.38 205.2 -13.28 203.4 -13.08C203.76 -14.23 204.09 -15.16 204.38 -15.88C204.38 -16.23 204.23 -16.4 203.92 -16.4C203.14 -16.4 202.32 -15.25 201.47 -12.95C200.82 -12.91 200.34 -12.89 200.04 -12.89C199.74 -12.89 199.54 -12.96 199.43 -13.08C199.39 -13.08 199.37 -13.07 199.35 -13.06C199.17 -13 199.08 -12.87 199.08 -12.65C199.08 -12.07 199.43 -11.78 200.14 -11.78Z"></path></g><g id="SvgjsG2340" class="text" transform="translate(64.91, 74.16561097608772) scale(1)" light-content="false" fill="#8d8d8d"><path d="M-64.91 -56.31L-64.91 0L-61.96 0L-61.96 -22.43L-45.1 -22.43C-40.95 -22.43 -37.87 -23.18 -35.85 -24.68C-33.83 -26.18 -32.55 -28.09 -32 -30.41C-31.46 -32.73 -31.18 -35.71 -31.18 -39.37C-31.18 -43.08 -31.44 -46.08 -31.96 -48.37C-32.48 -50.66 -33.75 -52.56 -35.77 -54.06C-37.79 -55.56 -40.9 -56.31 -45.1 -56.31ZM-45.26 -25.21L-61.96 -25.21L-61.96 -53.53L-45.26 -53.53C-41.88 -53.53 -39.38 -52.98 -37.77 -51.89C-36.16 -50.8 -35.15 -49.3 -34.74 -47.39C-34.34 -45.48 -34.13 -42.81 -34.13 -39.37C-34.13 -35.99 -34.36 -33.33 -34.83 -31.39C-35.29 -29.45 -36.31 -27.94 -37.9 -26.85C-39.48 -25.76 -41.93 -25.21 -45.26 -25.21Z M12.93 0L16.12 0L7.2 -24.72C9.6 -25.37 11.4 -26.46 12.6 -27.99C13.81 -29.52 14.58 -31.24 14.94 -33.15C15.29 -35.06 15.47 -37.4 15.47 -40.19C15.47 -43.63 15.22 -46.45 14.73 -48.66C14.24 -50.87 13.01 -52.7 11.05 -54.14C9.09 -55.59 6.11 -56.31 2.13 -56.31L-18.83 -56.31L-18.83 0L-15.88 0L-15.88 -24.06L1.31 -24.06C2.62 -24.06 3.6 -24.12 4.26 -24.23ZM8.68 -28.44C7.04 -27.38 4.53 -26.85 1.15 -26.85L-15.88 -26.85L-15.88 -53.53L1.96 -53.53C5.18 -53.53 7.54 -53 9.04 -51.93C10.54 -50.87 11.5 -49.44 11.91 -47.64C12.32 -45.84 12.52 -43.35 12.52 -40.19C12.52 -37.08 12.29 -34.61 11.83 -32.78C11.36 -30.95 10.31 -29.51 8.68 -28.44Z M34.05 -1.27C36.61 0.01 41.03 0.65 47.31 0.65C53.58 0.65 58 0.01 60.57 -1.27C63.13 -2.55 64.8 -5.06 65.56 -8.8C66.32 -12.54 66.71 -18.99 66.71 -28.16C66.71 -37.32 66.32 -43.78 65.56 -47.51C64.8 -51.25 63.13 -53.76 60.57 -55.04C58 -56.33 53.58 -56.97 47.31 -56.97C41.03 -56.97 36.61 -56.33 34.05 -55.04C31.48 -53.76 29.82 -51.25 29.06 -47.51C28.29 -43.78 27.91 -37.32 27.91 -28.16C27.91 -18.99 28.29 -12.54 29.06 -8.8C29.82 -5.06 31.48 -2.55 34.05 -1.27ZM58.64 -3.44C56.6 -2.56 52.82 -2.13 47.31 -2.13C41.85 -2.13 38.09 -2.56 36.01 -3.44C33.94 -4.31 32.56 -6.44 31.88 -9.82C31.2 -13.2 30.86 -19.32 30.86 -28.16C30.86 -37 31.2 -43.11 31.88 -46.49C32.56 -49.87 33.94 -52 36.01 -52.87C38.09 -53.75 41.85 -54.18 47.31 -54.18C52.82 -54.18 56.6 -53.75 58.64 -52.87C60.69 -52 62.06 -49.87 62.74 -46.49C63.42 -43.11 63.76 -37 63.76 -28.16C63.76 -19.32 63.42 -13.2 62.74 -9.82C62.06 -6.44 60.69 -4.31 58.64 -3.44Z"></path></g><g id="SvgjsG2344" class="JXRkk2Ta86" transform="translate(143.95536890026682, 0) scale(1)" light-content="false" fill="url(#SvgjsLinearGradient8MpguX3Ii)"><path d="M0 0 h 63.60892621994664 v 5 h -63.60892621994664 ZM254.43570487978656 0 h 63.608926219946625 v 5 h -63.608926219946625 Z M0 0 h 5 v 92.01291214206117 h -5 Z M318.0446310997332 92.01291214206117 h -318.0446310997332 v -5 h 318.0446310997332 Z M318.0446310997332 92.01291214206117 h -5 v -92.01291214206117 h 5 Z" fill-rule="nonzero"></path></g><g id="SvgjsG2345" class="text" transform="translate(299.83484301452086, 78.34561097608773) scale(1)" light-content="false" fill="#94529f"><path d="M-125.45 -50.4C-125.45 -51.99 -125.36 -53.27 -125.19 -54.21C-125.02 -55.16 -124.62 -55.95 -123.99 -56.59C-123.37 -57.23 -121.68 -57.55 -118.94 -57.55C-114.65 -57.55 -111.64 -55.65 -109.9 -51.84C-108.63 -49.01 -107.99 -44.87 -107.99 -39.41C-107.99 -29.01 -109.27 -20.89 -111.82 -15.03C-114.46 -9.01 -118.15 -5.99 -122.89 -5.99C-123.91 -5.99 -124.57 -6.38 -124.89 -7.15C-125.21 -7.93 -125.38 -9.07 -125.41 -10.59ZM-136.56 0C-136.16 0.03 -135.76 0.04 -135.36 0.04L-134.16 0.04C-127.93 0.04 -122.51 -0.89 -117.9 -2.76C-104.26 -8.27 -97.44 -21.09 -97.44 -41.2C-97.44 -44.8 -97.93 -47.87 -98.91 -50.4C-101.71 -57.56 -107.67 -61.15 -116.78 -61.15L-138.72 -61.15C-137.39 -59.76 -136.43 -58.2 -135.84 -56.47C-135.47 -55.38 -135.23 -53.45 -135.12 -50.68L-134.68 -39.69C-134.47 -34.38 -134.36 -28.52 -134.36 -22.1C-134.36 -16.8 -134.47 -12.58 -134.68 -9.43C-134.79 -7.89 -134.92 -6.43 -135.06 -5.08C-135.21 -3.72 -135.71 -2.02 -136.56 0Z M-57.43 -20.5C-57.43 -18.16 -57.6 -15.93 -57.95 -13.83C-59.07 -6.74 -62.05 -3.2 -66.9 -3.2C-70.05 -3.2 -72.42 -4.56 -74.02 -7.27C-74.71 -8.47 -75.29 -10.14 -75.77 -12.29C-76.25 -14.43 -76.49 -19.52 -76.49 -27.54C-76.49 -29.77 -76.48 -31.95 -76.45 -34.05L-76.29 -46.84C-76.27 -48.97 -76.25 -51.05 -76.25 -53.07C-76.25 -56.56 -75.47 -59.26 -73.9 -61.15L-89.04 -61.15C-87.55 -59.44 -86.8 -56.48 -86.8 -52.27L-86.84 -22.34C-86.9 -6.91 -80.92 0.8 -68.9 0.8C-62.69 0.8 -58.22 -1.01 -55.47 -4.64C-52.7 -8.37 -51.32 -14.53 -51.32 -23.14L-51.32 -28.02C-51.32 -32.65 -51.29 -36.85 -51.24 -40.6C-51.18 -42.84 -51.12 -45.09 -51.06 -47.36C-50.99 -49.62 -50.89 -51.86 -50.76 -54.07C-50.62 -56.28 -49.96 -58.27 -48.76 -60.03L-47.92 -61.15L-61.03 -61.15C-60.71 -60.77 -60.29 -60.25 -59.77 -59.59C-59.25 -58.92 -58.8 -57.87 -58.43 -56.43C-57.63 -53.45 -57.23 -46.59 -57.23 -35.85Z M-13.11 0L0.84 0C-2.04 -3.62 -5.3 -18.01 -8.95 -43.16L-9.95 -50.44C-10.3 -52.86 -10.47 -54.61 -10.47 -55.67C-10.47 -58.02 -9.9 -59.84 -8.75 -61.15L-21.34 -61.15C-22.25 -60.08 -23.38 -58.85 -24.74 -57.45C-26.1 -56.05 -27.54 -54.37 -29.07 -52.41C-30.61 -50.46 -32.14 -48.16 -33.67 -45.54C-35.2 -42.92 -36.59 -39.86 -37.83 -36.37C-39.07 -32.88 -40.07 -28.9 -40.84 -24.44C-41.62 -19.98 -42 -15.18 -42 -10.05C-42 -4.92 -42.32 -1.56 -42.96 0.04L-31.01 0.04C-32.51 -3.18 -33.61 -6.39 -34.33 -9.59C-34.78 -11.72 -35.01 -14.95 -35.01 -19.26C-35.01 -24.14 -34.26 -28.82 -32.77 -33.29C-32.11 -33.45 -31.15 -33.53 -29.91 -33.53C-28.68 -33.53 -27.1 -33.06 -25.18 -32.11C-23.26 -31.17 -21.47 -29.79 -19.82 -27.98C-16.09 -23.87 -13.92 -18.64 -13.31 -12.27C-13.23 -11.34 -13.14 -10.52 -13.05 -9.81C-12.96 -9.11 -12.88 -8.47 -12.81 -7.89C-12.74 -7.32 -12.69 -6.78 -12.65 -6.27C-12.61 -5.77 -12.59 -5.02 -12.59 -4.02C-12.59 -3.02 -12.76 -1.68 -13.11 0ZM-31.13 -37.53C-29.05 -42.24 -26.42 -46.52 -23.22 -50.36L-20.94 -53.07L-19.54 -46.08C-19.25 -44.56 -18.45 -40.38 -17.15 -33.53C-18.45 -35.16 -20.08 -36.34 -22.02 -37.09C-22.93 -37.46 -23.84 -37.73 -24.76 -37.89C-25.68 -38.05 -26.71 -38.13 -27.86 -38.13C-29 -38.13 -30.09 -37.93 -31.13 -37.53Z M37.21 -14.79C35.58 -11.27 33.86 -8.69 32.05 -7.03C30.99 -6.07 29.77 -5.33 28.42 -4.8C27.06 -4.26 25.62 -4 24.1 -4C22.58 -4 21.45 -4.08 20.7 -4.26C19.96 -4.43 19.32 -5 18.78 -5.97C18.25 -6.95 17.98 -9.92 17.98 -14.91L17.98 -51.52C17.98 -52.47 18.01 -53.35 18.06 -54.15C18.28 -56.55 19.17 -58.88 20.74 -61.15L4.32 -61.15C4.98 -60.45 5.54 -59.77 5.99 -59.11C7.27 -57.3 7.91 -54.46 7.91 -50.6L7.91 -29.65C7.91 -23.93 7.93 -17.52 7.95 -10.43C7.95 -7.55 7.34 -5.21 6.11 -3.4C5.48 -2.44 4.1 -1.31 2 0L34.13 0C35.36 -0.69 36.37 -2.09 37.17 -4.2C37.51 -5.16 37.79 -6.17 37.99 -7.23C38.19 -8.3 38.29 -9.57 38.29 -11.03C38.29 -12.5 37.93 -13.75 37.21 -14.79Z M57.47 -61.15L43.68 -61.15L44.24 -59.55C45.17 -57.02 45.73 -51.08 45.92 -41.72C45.97 -39.81 46.01 -37.84 46.04 -35.83C46.07 -33.82 46.08 -30.08 46.08 -24.62C46.08 -19.16 45.92 -14.33 45.6 -10.15C45.47 -8.13 45.32 -6.38 45.16 -4.92C45 -3.45 44.51 -1.81 43.68 0L57.47 0C57.18 -0.59 56.94 -1.17 56.75 -1.76C55.63 -5.17 55.07 -14.41 55.07 -29.49C55.07 -33.17 55.11 -37.25 55.19 -41.72C55.25 -43.64 55.31 -45.49 55.39 -47.28C55.47 -49.06 55.59 -51.2 55.75 -53.69C55.91 -56.18 56.48 -58.67 57.47 -61.15Z M65.26 -43.16C65.8 -45.13 66.64 -47.17 67.78 -49.28C68.37 -50.34 69.01 -51.38 69.72 -52.37C70.43 -53.37 71.17 -54.25 71.96 -55.01C72.74 -55.77 73.55 -56.38 74.38 -56.85C75.2 -57.32 76.01 -57.55 76.81 -57.55C77.61 -57.55 78.24 -57.34 78.69 -56.93C79.14 -56.52 79.53 -55.71 79.85 -54.49C80.17 -53.28 80.33 -50.58 80.33 -46.4L80.33 -10.39C80.33 -7.89 79.84 -5.72 78.85 -3.88C78.32 -2.86 77.09 -1.57 75.17 0L95.6 0C94.64 -0.56 93.81 -1.16 93.1 -1.8C92.39 -2.44 91.7 -3.38 91.02 -4.62C90.34 -5.85 90 -7.78 90 -10.39L90 -21.98L89.96 -34.21L89.96 -49.2C89.96 -51.44 90.2 -53.35 90.68 -54.95C90.97 -55.86 91.35 -56.52 91.8 -56.93C92.25 -57.34 92.88 -57.55 93.68 -57.55C94.48 -57.55 95.29 -57.31 96.12 -56.83C99.77 -54.83 102.74 -50.28 105.03 -43.16C105.72 -44.73 106.07 -47.12 106.07 -50.32C106.07 -51.68 106 -52.99 105.87 -54.27C105.34 -58.86 104.3 -61.15 102.75 -61.15L67.54 -61.15C66.61 -61.15 65.82 -59.92 65.18 -57.47C64.92 -56.38 64.7 -55.16 64.54 -53.81C64.38 -52.47 64.3 -50.74 64.3 -48.64C64.3 -46.53 64.62 -44.71 65.26 -43.16Z M120.42 -15.39L120.42 -9.63C120.42 -4.97 118.7 -1.76 115.26 0L135.68 0C134.67 -0.59 133.8 -1.21 133.08 -1.88C132.37 -2.54 131.69 -3.48 131.05 -4.68C130.41 -5.87 130.09 -7.83 130.09 -10.55L130.09 -28.82C130.09 -32.49 131.47 -37.39 134.24 -43.52L136.28 -47.96C136.92 -49.29 138.04 -51.44 139.64 -54.39C141.24 -57.35 142.77 -59.6 144.23 -61.15L133.24 -61.15C133.32 -60.69 133.36 -60.17 133.36 -59.59C133.36 -56.1 132.6 -52.42 131.09 -48.56L129.57 -44.8C128.82 -42.99 127.82 -41.14 126.57 -39.25C125.58 -40.84 124.76 -42.42 124.09 -43.96L122.17 -48.6C121.53 -50.14 121.02 -51.84 120.62 -53.67C120.4 -54.63 120.23 -55.57 120.1 -56.49C119.96 -57.41 119.9 -58.28 119.9 -59.11C119.9 -59.93 119.99 -60.61 120.18 -61.15L104.07 -61.15C106.65 -59.42 109.66 -54.95 113.1 -47.76L114.42 -45.12C114.95 -44.06 115.98 -41.86 117.5 -38.53C119.47 -34.1 120.46 -30.69 120.46 -28.3L120.46 -23.74Z"></path></g></g></g></svg>